# xmcd
#
# Track frame offsets: 
#        150
#        53452
#        111980
#        146065
#        196262
#
# Disc length: 3566 seconds
#
# Revision: 4
# Processed by: cddbd v1.5.2PL0 Copyright (c) Steve Scherf et al.
# Submitted via: ExactAudioCopyFreeDBPlugin 1.0
#
DISCID=410dec05
DTITLE=Berliner Symphoniker / Symphony No. 9: From the New World
DYEAR=1992
DGENRE=Classical
TTITLE0=Adagio, Allegro molto
TTITLE1=Largo
TTITLE2=Molto vivace
TTITLE3=Allegro con fuoco
TTITLE4=Othello - Concert Overture in F sharp minor op.93
EXTD=YEAR: 1992 ID3G: 32
EXTT0=
EXTT1=
EXTT2=
EXTT3=
EXTT4=
PLAYORDER=
.
